<?xml version="1.0" encoding="UTF-8" standalone="no"?>
<svg
   xmlns:dc="http://purl.org/dc/elements/1.1/"
   xmlns:cc="http://creativecommons.org/ns#"
   xmlns:rdf="http://www.w3.org/1999/02/22-rdf-syntax-ns#"
   xmlns:svg="http://www.w3.org/2000/svg"
   xmlns="http://www.w3.org/2000/svg"
   viewBox="0 0 160.41333 140.67999"
   height="140.67999"
   width="160.41333"
   xml:space="preserve"
   id="svg2"
   version="1.1"><metadata
     id="metadata8"><rdf:RDF><cc:Work
         rdf:about=""><dc:format>image/svg+xml</dc:format><dc:type
           rdf:resource="http://purl.org/dc/dcmitype/StillImage" /></cc:Work></rdf:RDF></metadata><defs
     id="defs6" /><g
     transform="matrix(1.3333333,0,0,-1.3333333,0,140.68)"
     id="g10"><g
       transform="scale(0.1)"
       id="g12"><path
         id="path14"
         style="fill:#ee2c30;fill-opacity:1;fill-rule:nonzero;stroke:none"
         d="M 49.6875,0 H 1153.45 v 0 c 38.19,0 62.06,41.3281 42.98,74.4141 v 0 L 644.516,1030.29 v 0 c -19.082,33.08 -66.817,33.08 -85.899,0 v 0 L 6.70313,74.4141 v 0 C -12.3711,41.3281 11.4922,0 49.6875,0 v 0" /><path
         id="path16"
         style="fill:#ffffff;fill-opacity:1;fill-rule:nonzero;stroke:none"
         d="M 135.586,99.2188 H 1067.55 L 601.566,906.262 135.586,99.2188" /><path
         id="path18"
         style="fill:#231f20;fill-opacity:1;fill-rule:nonzero;stroke:none"
         d="m 785.992,351.867 -7.48,-2.922 -0.188,-2.011 -0.066,-0.899 v 0 c -0.11,-1.726 -0.215,-3.535 -0.293,-5.262 -0.031,-1.476 -0.031,-2.988 0,-4.464 0.039,-2.227 0.215,-4.461 0.437,-6.661 0.215,-2.195 0.606,-4.675 1.008,-6.835 0.281,-1.516 0.828,-3.887 1.18,-5.333 0.332,-1.398 1.367,-4.96 1.769,-6.328 0.789,-2.597 2.625,-7.636 3.563,-10.156 0.832,-2.266 3.566,-8.387 4.531,-10.586 1.192,-2.695 4.219,-8.133 5.656,-10.722 1.192,-2.129 3.602,-5.547 5.039,-7.528 l 2.305,-2.844 v 0 l 4.141,-4.714 2.988,-3.243 v 0 l 1.797,-1.796 v 0 l 0.574,-0.508 1.047,-0.969 v 0 c -0.031,-0.898 -0.109,-2.129 -0.109,-3.027 0,-1.903 0.148,-3.817 0.402,-5.684 0.281,-2.02 0.789,-4.219 1.328,-6.191 0.652,-2.489 1.805,-5.371 2.813,-7.704 1.113,-2.601 3.242,-6.339 4.636,-8.789 0.723,-1.222 3.391,-5.078 4.18,-6.222 0.43,-0.653 5.441,-7.059 5.938,-7.676 0.214,-0.281 6.164,-7.09 6.406,-7.375 0.578,-0.68 5.156,-5.223 5.801,-5.867 v 0 l 2.121,-1.981 4.5,-4.035 1.691,-1.512 -6.769,-5.293 0.871,-1.691 0.39,-0.793 v 0 c 0.547,-1.297 1.153,-2.808 1.512,-4.137 0.293,-1.117 0.508,-2.304 0.578,-3.457 0.078,-1.074 0.039,-2.16 -0.07,-3.242 -0.184,-1.398 -0.508,-2.91 -0.867,-4.277 -0.352,-1.34 -0.93,-2.844 -1.477,-4.113 -0.359,-0.899 -0.965,-1.864 -1.543,-2.657 -0.32,-0.468 -0.898,-1.121 -1.297,-1.511 -0.469,-0.508 -1.836,-1.692 -2.305,-2.161 -0.644,-0.546 -1.691,-1.257 -2.375,-1.726 -0.468,-0.293 -1.003,-0.547 -1.55,-0.723 -0.969,-0.324 -2.227,-0.429 -3.164,-0.039 -0.618,0.254 -1.153,0.684 -1.516,1.231 -0.359,0.535 -0.723,1.543 -0.898,2.195 v 0 l -2.09,5.937 -3.563,15.012 v 0 c -0.644,2.813 -1.797,6.231 -2.773,8.961 -1.113,3.203 -3.957,9.652 -5.324,12.746 -1.231,2.774 -5.118,10.039 -6.524,12.707 -1.258,2.301 -4.062,6.551 -5.535,8.711 -1.125,1.699 -4.18,5.399 -5.48,6.953 v 0 l -12.129,13.282 -13.817,14.003 v 0 c -0.508,0.508 -6.847,6.297 -7.383,6.805 -1.445,1.289 -8.39,6.797 -9.902,8.027 -1.477,1.153 -9.973,6.981 -11.523,8.067 v 0 l -20.95,12.957 -7.273,4.68 -8.027,5.398 -14.153,9.543 v 0 c -0.566,0.391 -3.847,2.371 -4.422,2.734 -2.882,1.727 -7.921,4.141 -10.976,5.547 -3.75,1.731 -10.371,4.168 -14.219,5.539 -2.961,1.082 -9.004,2.809 -11.992,3.672 -3.164,0.938 -7.883,1.981 -11.125,2.625 -0.645,0.149 -2.195,0.442 -2.84,0.547 v 0 l -17.824,2.91 v 0 c -3.309,0.547 -8.965,1.512 -12.235,2.238 -2.382,0.497 -6.015,1.329 -8.359,2.012 -1.074,0.332 -4.25,1.231 -5.293,1.59 -0.93,0.324 -4.211,1.477 -5.109,1.836 -0.723,0.285 -2.051,0.859 -2.774,1.223 -0.468,0.254 -1.074,0.574 -1.472,0.855 -0.286,0.215 -0.793,0.617 -1.086,0.871 -0.242,0.254 -1.153,1.113 -1.395,1.406 v 0 l -0.441,0.5 -0.86,0.973 -1.582,-0.465 -0.761,-0.187 v 0 c -1.219,-0.321 -2.547,-0.535 -3.778,-0.684 -1.074,-0.137 -2.199,-0.215 -3.312,-0.215 -1.219,0.039 -2.449,0.11 -3.633,0.325 -1.875,0.332 -4.102,0.722 -5.938,1.226 v 0 l -18.148,5.109 v 0 c -1.152,0.325 -6.66,1.727 -7.812,2.02 -1.368,0.355 -7.379,1.652 -8.747,1.945 -2.625,0.578 -8.46,1.621 -11.085,2.082 -2.774,0.508 -7.059,1.082 -9.868,1.446 -2.195,0.281 -5.148,0.574 -7.34,0.789 -1.91,0.176 -4,0.293 -5.906,0.398 -2.879,0.11 -5.761,0.137 -8.676,0 -2.453,-0.078 -4.968,-0.25 -7.382,-0.613 -0.141,0 -1.078,-0.145 -1.258,-0.145 v 0 l -2.703,-0.429 1.48,-1.516 0.719,-0.793 2.773,-3.164 v 0 c 0.395,-0.437 1.043,-1.012 1.508,-1.402 v 0 l 8.461,-6.407 11.668,-9.113 v 0 c 1.219,-0.898 3.813,-2.453 5.145,-3.242 1.226,-0.715 8.027,-4.211 9.328,-4.891 v 0 l 5.828,-2.777 3.746,-1.656 0.719,-0.324 1.152,-0.469 -2.019,-3.778 v 0 c 0.578,-0.07 1.546,-0.175 2.089,-0.324 0.469,-0.105 0.938,-0.285 1.332,-0.469 0.719,-0.363 3.098,-1.582 3.817,-1.984 v 0 l 2.664,-1.543 v 0 c 0.14,-0.105 0.539,-0.359 0.683,-0.465 0.614,-0.468 1.368,-1.086 1.836,-1.664 0.684,-0.75 1.871,-2.078 2.45,-2.949 0.539,-0.789 1.652,-2.449 2.121,-3.348 0.433,-0.789 1.011,-1.867 1.336,-2.695 0.433,-1.113 0.828,-2.375 1.078,-3.562 0.215,-1.196 0.394,-2.454 0.433,-3.672 0.036,-1.907 -0.144,-3.567 -0.613,-5.442 -0.25,-0.937 -0.644,-2.011 -1.008,-2.91 -0.359,-0.871 -0.972,-1.875 -1.441,-2.668 v 0 l -0.32,-0.465 -0.684,-0.937 -1.695,1.472 -0.864,0.832 -6.8,6.446 v 0 c -0.289,0.281 -4.43,3.847 -4.719,4.101 v 0 l -6.121,4.785 -11.699,8.426 -9.54,6.836 -1.8,1.231 -16.129,10.039 -13.93,8.816 v 0 c -0.039,0 -0.359,0.227 -0.359,0.227 -0.184,0.105 -1.621,0.859 -1.805,0.929 v 0 l -14.035,6.993 v 0 c -1.551,0.816 -5.543,2.871 -7.024,3.808 -1.187,0.758 -2.988,1.914 -4.066,2.813 -0.824,0.683 -2.125,1.797 -2.883,2.586 -0.574,0.683 -1.332,1.515 -1.762,2.273 -0.394,0.648 -0.863,1.477 -1.152,2.191 -0.215,0.653 -0.469,1.336 -0.574,2.02 -0.25,1.543 -0.145,2.91 0.144,4.461 0.29,1.406 0.864,2.844 1.547,4.144 0.614,1.219 1.582,2.411 2.52,3.379 0.758,0.758 1.765,1.512 2.629,2.09 1.258,0.828 3.019,1.66 4.426,2.262 1.765,0.805 4.144,1.594 6.046,2.133 2.809,0.855 6.59,1.687 9.434,2.265 3.098,0.653 7.598,1.368 10.691,1.836 3.133,0.465 6.805,0.867 9.973,1.153 2.445,0.254 5.188,0.398 7.668,0.535 2.344,0.117 4.754,0.148 7.129,0.148 0.07,0 0.144,0 0.254,0 v 0 l 9.32,-0.148 v 0 c 0.938,0 2.594,0.039 3.383,0.508 0.758,0.429 1.371,1.113 1.77,1.941 0.394,0.902 0.535,1.73 0.535,2.707 0,0.43 -0.071,0.859 -0.141,1.262 -0.289,1.148 -0.863,3.269 -1.227,4.383 -0.468,1.699 -0.898,3.496 -1.113,5.226 -0.433,3.375 -0.797,6.914 -0.937,10.289 -0.149,3.672 -0.325,8.352 -0.149,12.024 0.074,1.484 0.258,3.027 0.438,4.472 0.179,1.075 0.429,2.297 0.719,3.379 0.039,0.071 0.25,0.793 0.25,0.899 v 0 l 0.613,1.836 -1.188,2.089 v 0 c -0.105,0.215 -0.433,0.832 -0.543,1.047 -0.394,0.965 -0.824,2.09 -1.039,3.133 -0.433,2.051 -0.832,4.277 -1.047,6.328 -0.214,1.953 -0.574,5.508 -0.754,7.461 -0.148,1.613 -0.289,3.528 -0.363,5.176 v 0 l -0.394,17.5 -0.719,18.074 v 0 c -0.07,2.805 -0.285,5.727 -0.574,8.528 -0.11,1.191 -0.399,2.453 -0.723,3.64 -0.035,0.11 -0.215,0.754 -0.289,0.902 v 0 l -0.609,1.797 v 0 c -0.504,-0.039 -1.516,-0.109 -2.016,-0.109 -0.324,-0.039 -0.688,-0.039 -1.008,-0.039 -1.117,-0.027 -2.269,-0.027 -3.422,0.039 -1.55,0.109 -3.203,0.254 -4.754,0.43 -1.332,0.187 -2.879,0.398 -4.211,0.683 -0.793,0.188 -1.691,0.403 -2.449,0.684 -0.394,0.148 -0.933,0.363 -1.293,0.547 v 0 l -5.398,2.843 v 0 c -0.973,0.536 -3.137,1.543 -4.141,2.012 -1.047,0.504 -2.808,1.121 -3.887,1.512 -0.687,0.215 -1.769,0.535 -2.453,0.723 v 0 l -8.347,2.011 -6.914,1.512 v 0 c -0.614,0.148 -1.442,0.293 -2.086,0.402 -2.239,0.352 -4.969,0.821 -7.168,1.368 -0.684,0.175 -1.403,0.429 -2.016,0.793 -0.609,0.359 -1.328,0.828 -1.836,1.289 -0.504,0.468 -1.039,1.043 -1.402,1.621 -0.684,1.082 -1.153,2.168 -1.227,3.425 -0.031,1.075 0.223,2.012 0.617,2.989 0.247,0.644 0.715,1.328 1.114,1.902 0.543,0.754 1.437,1.621 2.09,2.27 1.003,0.933 2.48,1.941 3.671,2.703 1.508,1.008 3.852,2.117 5.508,2.91 1.004,0.43 3.203,1.301 4.207,1.66 0.438,0.176 8.461,2.879 8.899,3.02 v 0 l 8.562,2.769 6.809,2.277 v 0 c 0.14,0.032 8.312,2.989 8.457,3.016 0.902,0.363 4.246,1.664 5.109,2.09 0.867,0.402 4.324,1.984 5.188,2.453 0.468,0.254 5.433,2.91 5.902,3.203 0.938,0.578 2.988,1.836 3.856,2.481 0.648,0.468 1.511,1.152 2.046,1.726 0.688,0.688 1.477,1.586 1.985,2.414 0.394,0.645 0.793,1.407 1.008,2.129 0.433,1.582 0.359,4.278 0.285,5.938 -0.074,1.797 -0.215,4.062 -0.36,5.871 -0.035,0.496 -0.109,1.043 -0.179,1.543 -0.145,0.898 -0.399,1.875 -0.649,2.73 -0.324,1.086 -1.043,3.098 -1.402,4.18 -0.145,0.363 -1.262,3.031 -1.402,3.391 -0.18,0.429 -1.012,2.16 -1.227,2.589 -0.215,0.399 -2.051,4.207 -2.23,4.645 -0.18,0.433 -0.364,0.902 -0.469,1.367 -0.324,1.289 -0.399,2.445 -0.254,3.813 0.039,0.546 0.18,1.121 0.328,1.66 0.18,0.722 0.5,1.687 0.754,2.371 v 0 l 0.324,0.762 0.649,1.543 1.218,-1.836 0.688,-0.938 v 0 c 0.469,-0.684 1.406,-1.797 1.945,-2.414 0.399,-0.426 1.008,-0.934 1.477,-1.289 1.511,-1.227 3.636,-1.941 5.582,-2.02 1.113,-0.039 2.261,0.106 3.343,0.469 1.333,0.469 2.7,1.113 3.817,1.906 1.152,0.868 2.414,1.914 3.312,3.063 1.153,1.476 2.485,3.312 3.309,4.973 0.648,1.261 1.48,2.976 1.91,4.316 0.434,1.223 0.863,2.625 1.117,3.926 0.071,0.469 0.184,1.047 0.25,1.543 0.11,1.301 0.395,3.672 0.508,4.933 0.035,0.547 0.141,1.727 0.215,2.235 0.035,0.468 0.215,1.836 0.289,2.265 v 0 l 0.141,1.086 0.363,2.41 v 0 c 0,-0.039 1.437,-2.382 1.473,-2.41 0.148,-0.332 0.468,-0.91 0.617,-1.234 0.355,-0.817 0.715,-1.758 0.929,-2.652 0.29,-1.235 0.543,-2.563 0.684,-3.86 0.289,-2.949 0.289,-5.469 0,-8.457 -0.141,-1.473 -0.43,-3.066 -0.719,-4.5 -0.285,-1.262 -0.718,-2.734 -1.148,-3.965 -0.363,-1.035 -1.008,-2.519 -1.477,-3.527 -0.504,-1.047 -1.695,-3.133 -2.269,-4.141 -0.035,-0.031 -1.262,-1.906 -1.262,-1.945 v 0 l -4.141,-5.934 v 0 c -0.066,-0.148 -2.914,-4.359 -2.988,-4.503 -0.394,-0.645 -1.258,-2.051 -1.582,-2.735 -0.609,-1.297 -1.332,-2.918 -1.762,-4.289 -0.394,-1.18 -0.683,-2.437 -0.832,-3.672 -0.394,-3.414 0.11,-6.472 1.121,-9.785 0.215,-0.719 0.645,-1.836 0.899,-2.516 0.254,-0.617 0.789,-1.66 1.078,-2.238 v 0 l 0.469,-0.75 0.937,-1.594 1.262,2.52 v 0 c 0.07,0.109 0.648,1.152 0.715,1.262 0.504,0.906 1.48,2.234 2.125,3.093 0.683,0.911 3.027,3.563 3.781,4.434 0.539,0.574 3.422,3.379 3.996,3.953 0.645,0.656 2.305,1.945 3.059,2.563 1.152,0.933 3.168,2.156 4.469,2.918 1.398,0.832 3.523,1.796 5,2.441 v 0 l 7.777,2.852 v 0 c 0.723,0.285 2.305,0.753 3.027,0.429 0.645,-0.293 1.074,-0.898 1.289,-1.551 0.332,-0.929 0.215,-1.835 -0.07,-2.765 -0.145,-0.399 -0.398,-0.801 -0.613,-1.153 -0.391,-0.652 -1.399,-1.953 -1.867,-2.558 v 0 l -1.153,-1.473 -3.781,-4.972 v 0 c -0.324,-0.469 -3.387,-4.286 -3.746,-4.754 -0.539,-0.645 -1.797,-1.946 -2.414,-2.551 v 0 l -5.219,-4.543 -6.262,-6.188 -0.687,-0.648 -1.328,-1.227 1.507,-2.05 0.688,-0.969 v 0 c 1.008,-1.555 2.523,-3.965 3.348,-5.613 1.047,-2.168 2.988,-6.231 3.851,-8.496 0.578,-1.594 2.629,-6.915 3.133,-8.536 0.254,-0.754 4.211,-13.175 4.426,-13.964 v 0 l 4.176,-14.329 3.851,-13.898 v 0 c 0.899,-3.457 4.211,-14.363 5.254,-17.793 0.723,-2.262 2.023,-5.465 2.961,-7.664 1.219,-2.949 3.484,-6.981 5.066,-9.719 1.621,-2.73 4.864,-7.086 6.77,-9.605 2.773,-3.676 7.383,-8.215 10.691,-11.352 3.176,-2.949 7.785,-6.109 11.379,-8.457 3.672,-2.371 8.535,-4.566 12.528,-6.258 5.617,-2.343 12.851,-4.5 18.722,-6.121 1.219,-0.324 6.121,-1.515 7.344,-1.797 v 0 l 16.844,-3.644 v 0 c 0.293,-0.067 17.5,-3.446 17.785,-3.524 2.195,-0.429 5.586,-0.941 7.781,-1.261 v 0 l 26.965,-3.028 v 0 c 4.141,-0.566 8.992,-1.328 13.066,-2.265 3.133,-0.684 6.981,-1.649 10.008,-2.664 3.418,-1.184 7.813,-2.766 11.047,-4.387 2.879,-1.473 6.914,-3.602 9.578,-5.477 2.012,-1.398 5.617,-3.918 7.414,-5.578 1.914,-1.687 6.59,-5.91 8.321,-7.746 0.789,-0.894 5.105,-5.574 5.867,-6.473 0.859,-1.113 3.82,-4.824 4.609,-6.015 1.008,-1.473 2.551,-3.817 3.379,-5.399 0.578,-1.156 1.152,-2.484 1.516,-3.703 0.039,-0.183 0.175,-0.683 0.215,-0.91 0.039,-0.066 0.398,-1.687 0.429,-1.754 v 0" /></g></g></svg>